<svg id="Layer_1" data-name="Layer 1" xmlns="http://www.w3.org/2000/svg" viewBox="0 0 124.56 144"><defs><style>.cls-1{fill:#5295ce;}.cls-2{fill:#3674a8;}.cls-3,.cls-7,.cls-8{fill:#fff;}.cls-4{fill:#9e101b;}.cls-5{fill:#c1272d;stroke:#9e101b;stroke-width:0.5px;}.cls-5,.cls-7{stroke-miterlimit:10;}.cls-6{fill:#b71d29;}.cls-7{stroke:#5295ce;stroke-width:0.1px;}.cls-8{font-size:4px;font-family:Avenir-Book, Avenir;}.cls-9{letter-spacing:-0.05em;}.cls-10{letter-spacing:-0.02em;}</style></defs><polygon class="cls-1" points="2 106.84 2 37.15 62.28 2.31 122.56 37.15 122.56 106.84 62.28 141.69 2 106.84"/><path class="cls-2" d="M72,4.62l58.28,33.69v67.38L72,139.38,13.72,105.69V38.31L72,4.62M72,0,9.72,36v72L72,144l62.28-36V36Z" transform="translate(-9.72)"/><path class="cls-3" d="M56.82,51a.86.86,0,0,1,.85-.87h0L64.52,50l4.31-13a.87.87,0,0,1,1.08-.56.83.83,0,0,1,.56.56l4.19,14.11,3.27-6.75a.85.85,0,0,1,.74-.49.89.89,0,0,1,.78.44l3.27,5.77h2.65a.86.86,0,0,1,0,1.72H82.26a.86.86,0,0,1-.75-.44l-2.79-4.81L75.2,53.83a.84.84,0,0,1-.77.48h-.07a.88.88,0,0,1-.76-.61l-4-13.61L66,51.09a.86.86,0,0,1-.81.59l-7.46.1h0A.85.85,0,0,1,56.82,51Z" transform="translate(-9.72)"/><path class="cls-3" d="M94.39,27.46H50.05a.87.87,0,0,0-.87.87V62.12a.87.87,0,0,0,.87.87H67.24v6h-9a.37.37,0,0,0-.24.1.36.36,0,0,0-.09.24v2.42a.33.33,0,0,0,.33.33H86.18a.32.32,0,0,0,.33-.31V69.36a.36.36,0,0,0-.09-.24.35.35,0,0,0-.24-.1h-9V63H94.39a.87.87,0,0,0,.87-.87h0V28.33a.87.87,0,0,0-.87-.87Zm-.87,33.79H50.92v-32h42.6Z" transform="translate(-9.72)"/><path class="cls-4" d="M44.74,45a9.63,9.63,0,0,0,4.17-3.46,10.22,10.22,0,0,1,1.78-2.2l-3.93,1.49A9.66,9.66,0,0,0,44.74,45Z" transform="translate(-9.72)"/><path class="cls-5" d="M46.58,38.91s1.5-3.58,10-5.45c1.17-.38,7.22-2.41,8.19-6,0,0-6.65-11.4-15.88-4.5h0C41.43,28.62,44.71,35.89,46.58,38.91Z" transform="translate(-9.72)"/><path class="cls-5" d="M46.49,38.64,45,44.12c1.49-4.64,8.72-4.79,8.72-4.79,3.91.32,5.13-.91,5.13-.91a9.42,9.42,0,0,0,3.51-7.73s-9.51,3.65-11.82,4.79A14.3,14.3,0,0,0,46.49,38.64Zm-1.64,5.84.1-.37C44.92,44.24,44.88,44.36,44.85,44.48Z" transform="translate(-9.72)"/><path class="cls-6" d="M48.17,23.75c.24.33,1.76-.79,1.5-1.12a.85.85,0,0,0-1.2,0A.84.84,0,0,0,48.17,23.75Z" transform="translate(-9.72)"/><path class="cls-7" d="M92.65,27.41c-3.25-.15-5.59,1.21-5.1,3.85a1.53,1.53,0,0,0,.27.56c.92,1.41,1.86,2.82,2.76,4.24a3,3,0,0,1,.2.78,2.78,2.78,0,0,0,.21.57,9.9,9.9,0,0,1,1.58,4.68,5.79,5.79,0,0,1-.47,2.29,2.73,2.73,0,0,1-1.21,1.26,6.79,6.79,0,0,1-3.13.7c-.51,0-.61-.27-.58-.67a.51.51,0,0,1,.68-.51,8.39,8.39,0,0,0,1.32.29,2.4,2.4,0,0,0,2.12-1,3.73,3.73,0,0,0,.58-2.54,7.28,7.28,0,0,0-1.71-4.33c-1.25-1.32-2-2.91-3.15-4.3-.85,1-1.66,2.06-2.51,3a4.79,4.79,0,0,1-.82.6.78.78,0,0,0-.26.22,10.84,10.84,0,0,0-2.14,4.19,6.1,6.1,0,0,0,0,2,2.24,2.24,0,0,0,2.08,1.79A6.8,6.8,0,0,0,84.72,45c.44,0,.75.06.73.58s-.27.72-.76.59a12.22,12.22,0,0,1-2.87-1c-1.47-.85-1.52-2.31-1.33-3.73A10.6,10.6,0,0,1,82.72,37a4.67,4.67,0,0,0,.23-.66,2.49,2.49,0,0,1,.29-.59c1-1.21,2-2.4,2.91-3.62a1.26,1.26,0,0,0,.24-.86,4.44,4.44,0,0,1,3.73-5l.19,0a2.22,2.22,0,0,1,2.38,1.29" transform="translate(-9.72)"/><path class="cls-3" d="M47.54,95.8a19.58,19.58,0,0,1-3.66,3,6.86,6.86,0,0,1-3.58,1,4.72,4.72,0,0,1-3.53-1.4,5.09,5.09,0,0,1-1.34-3.68,9.22,9.22,0,0,1,2.36-6.16A6.88,6.88,0,0,1,43,85.81a3.51,3.51,0,0,1,2.39.77,2.53,2.53,0,0,1,.9,2q0,3.33-7.06,5.4c.42,2.09,1.54,3.14,3.35,3.13a4,4,0,0,0,2-.57A17.3,17.3,0,0,0,47.54,94Zm-8.41-3c2.74-.77,4.11-2.19,4.11-4.28,0-1-.38-1.54-1.12-1.54s-1.39.54-2,1.62a8.1,8.1,0,0,0-1,4.23Z" transform="translate(-9.72)"/><path class="cls-3" d="M62,95.8a4.54,4.54,0,0,1-1.5.91A3.64,3.64,0,0,1,59.3,97a3.7,3.7,0,0,1-2.31-.9q-2.87,3.63-6.06,3.63a3.2,3.2,0,0,1-2.61-1.15,5,5,0,0,1-.94-3.2,17.93,17.93,0,0,1,1.13-5.56l1.12-3.3L54,85.7l-1.93,5.79q-.3,1-.57,2.25a9.81,9.81,0,0,0-.27,1.87,2.29,2.29,0,0,0,.45,1.45,1.39,1.39,0,0,0,1.12.59q1.55,0,3.33-2.64a7.25,7.25,0,0,1-.82-3.29,7.37,7.37,0,0,1,1.21-4.15,3.32,3.32,0,0,1,2.66-1.84c.73,0,1.09.56,1.09,1.68q0,3.27-2.63,7.54a2.5,2.5,0,0,0,1.71.75c.73,0,1.61-.58,2.64-1.75Z" transform="translate(-9.72)"/><path class="cls-3" d="M69.86,95.8c-2.51,2.63-4.38,4-5.63,4a2,2,0,0,1-1.73-1,4.65,4.65,0,0,1-.71-2.64q0-3.42,2.31-9.48l4.08-.85h.2l-1.61,5a16.92,16.92,0,0,0-1,4.44,1.38,1.38,0,0,0,.23.86.68.68,0,0,0,.58.33A2.18,2.18,0,0,0,67.85,96a17.17,17.17,0,0,0,2-2Z" transform="translate(-9.72)"/><path class="cls-3" d="M81.87,95.8a19.58,19.58,0,0,1-3.66,3,7,7,0,0,1-3.58,1,4.68,4.68,0,0,1-3.53-1.4,5.12,5.12,0,0,1-1.38-3.76,9.22,9.22,0,0,1,2.36-6.16,6.88,6.88,0,0,1,5.24-2.75,3.53,3.53,0,0,1,2.4.77,2.53,2.53,0,0,1,.9,2q0,3.33-7.07,5.4C74,96,75.1,97,76.91,97a3.81,3.81,0,0,0,2-.57,17,17,0,0,0,3-2.46Zm-8.42-3c2.74-.77,4.12-2.2,4.12-4.28,0-1-.38-1.54-1.13-1.54s-1.38.54-2,1.62a8,8,0,0,0-1,4.23Z" transform="translate(-9.72)"/><path class="cls-3" d="M104.15,95.8a5.22,5.22,0,0,1-1.54.91,3.77,3.77,0,0,1-1.19.29,3.62,3.62,0,0,1-2.3-.9q-2.93,3.63-6,3.63a3.37,3.37,0,0,1-3.26-2.51,6.19,6.19,0,0,1-4.65,2.51,3.2,3.2,0,0,1-2.55-1.07,4.34,4.34,0,0,1-.93-3,15.86,15.86,0,0,1,.57-4.11A53.82,53.82,0,0,1,84,86.44l4.24-.78-1.19,3.58a25.23,25.23,0,0,0-1.51,6.42A2.24,2.24,0,0,0,86,97a1.22,1.22,0,0,0,1,.53c.85,0,1.71-.67,2.57-2a16.45,16.45,0,0,1,.91-5.24l1.32-3.89,4.3-.78-1.8,5.55a14.62,14.62,0,0,0-.87,4.24A2.47,2.47,0,0,0,93.83,97a1.3,1.3,0,0,0,1.11.57,2.44,2.44,0,0,0,1.61-.63,11,11,0,0,0,1.7-1.9,6.7,6.7,0,0,1-.85-3.22,7.6,7.6,0,0,1,1.21-4.27,3.32,3.32,0,0,1,2.71-1.85c.7,0,1.05.52,1.05,1.57A15.22,15.22,0,0,1,99.72,95a2.49,2.49,0,0,0,1.7.75c.72,0,1.62-.58,2.7-1.75Z" transform="translate(-9.72)"/><path class="cls-3" d="M28.14,79.71a7.36,7.36,0,0,1-.35,1.4c-.23.75-.51,1.65-.84,2.68s-.68,2.12-1.07,3.27-.73,2.21-1,3.18a38.58,38.58,0,0,0-1.45,5.69,24,24,0,0,0-.3,2.93v.29c0,.24-.25.43-.77.56a11.5,11.5,0,0,1-2.55.2,2.18,2.18,0,0,1-1.09-.27c-.32-.17-.48-.38-.48-.62a5,5,0,0,1,.22-1.15c.14-.55.34-1.24.6-2.06s.57-1.75.93-2.79.74-2.17,1.18-3.38.83-2.46,1.12-3.45.51-1.85.67-2.6a14.94,14.94,0,0,0,.33-1.87,10.36,10.36,0,0,0,.08-1.25v-.6c0-.17.31-.34.92-.49a12.22,12.22,0,0,1,2.7-.23,2.68,2.68,0,0,1,.89.1A.56.56,0,0,1,28.14,79.71Z" transform="translate(-9.72)"/><path class="cls-3" d="M55.16,112.64c-1-.5-7.06-2.9-9.13-3.56a56,56,0,0,1-8.91-3.44,20.09,20.09,0,0,1-7.06-5.85,22.3,22.3,0,0,1-1.69-2.71c-.22-.46-.46-1-.73-1.66a41.46,41.46,0,0,1-1.26-4.18,9.65,9.65,0,0,1-.22-2c0-.2.16-.44.46-.73s.69-.62,1.15-1,1-.81,1.5-1.27a13.1,13.1,0,0,0,1.5-1.48,8.27,8.27,0,0,0,1.15-1.67,4,4,0,0,0,.46-1.85,3.81,3.81,0,0,0-.28-1.41,3.71,3.71,0,0,0-.89-1.32,4.64,4.64,0,0,0-1.61-1,7.05,7.05,0,0,0-2.45-.38,12.18,12.18,0,0,0-1.81.17,5.23,5.23,0,0,0-2.07.85,6.49,6.49,0,0,0-1.86,2.11,10.49,10.49,0,0,0-1.17,3.91c0,.11-.09.17-.26.17a1.43,1.43,0,0,1-.76-.34,5.66,5.66,0,0,1-.9-.79,6.25,6.25,0,0,1-.78-1,1.8,1.8,0,0,1-.33-.92,3.45,3.45,0,0,1,.73-2A6.7,6.7,0,0,1,20,77.46a12.45,12.45,0,0,1,3.2-1.33,15.51,15.51,0,0,1,4.18-.53,18.87,18.87,0,0,1,3.52.3,9.5,9.5,0,0,1,2.8.92,5,5,0,0,1,1.84,1.59,4,4,0,0,1,.66,2.36,4.79,4.79,0,0,1-.6,2.43,7,7,0,0,1-1.51,1.87,14.84,14.84,0,0,1-2,1.52c-.72.46-1.42.9-2.1,1.31-.07,0-.1.17-.1.37a7.71,7.71,0,0,0,.21,1.43c.15.64,1.1,4,1.53,5,1.93,4.29,3.65,5.73,4.57,6.29,8.15,4.92,15.45,2,17.62-.16-1.08,3-2.15,4.63-1.69,6.35S53.72,111.57,55.16,112.64Z" transform="translate(-9.72)"/><path class="cls-3" d="M113.63,79.71a7.36,7.36,0,0,1-.35,1.4l-.83,2.68c-.33,1-.69,2.12-1.07,3.27s-.73,2.21-1,3.18a38.58,38.58,0,0,0-1.45,5.69,22.19,22.19,0,0,0-.29,2.93v.29c0,.24-.26.43-.78.56a11.5,11.5,0,0,1-2.55.2,2.24,2.24,0,0,1-1.1-.27c-.32-.17-.48-.38-.48-.62a5.57,5.57,0,0,1,.22-1.15c.14-.55.34-1.24.61-2.06s.57-1.75.92-2.79.74-2.17,1.18-3.38.84-2.46,1.12-3.45.51-1.85.68-2.6a16.82,16.82,0,0,0,.26-1.87c0-.41.08-.83.09-1.25v-.6c0-.17.31-.34.92-.49a12.22,12.22,0,0,1,2.7-.23,2.68,2.68,0,0,1,.89.1A.53.53,0,0,1,113.63,79.71Z" transform="translate(-9.72)"/><path class="cls-3" d="M126.79,101.19c-3,1.13-4.93,1.35-5.94,2.81s-2.27,4.06-2.18,5.83c-.25-1.08-2.35-7.27-3.18-9.27-.3-.73-1.41-3-1.63-3.48s-.46-1-.73-1.66S112,92,111.87,91.24a11.22,11.22,0,0,1-.21-2,1.15,1.15,0,0,1,.46-.73c.3-.28.69-.62,1.15-1l1.5-1.27a14.87,14.87,0,0,0,1.49-1.48,8.27,8.27,0,0,0,1.15-1.67,4,4,0,0,0,.46-1.85,3.81,3.81,0,0,0-.28-1.41,3.71,3.71,0,0,0-.89-1.32,4.64,4.64,0,0,0-1.61-1,7.05,7.05,0,0,0-2.45-.38,12.18,12.18,0,0,0-1.81.17,5.23,5.23,0,0,0-2.07.85,6.49,6.49,0,0,0-1.86,2.11,10.37,10.37,0,0,0-1.18,3.92c0,.11-.09.17-.27.17a1.43,1.43,0,0,1-.73-.35,6.34,6.34,0,0,1-1.67-1.79,1.8,1.8,0,0,1-.33-.92,3.37,3.37,0,0,1,.72-2,6.7,6.7,0,0,1,2.06-1.83,12.5,12.5,0,0,1,3.22-1.3,15.51,15.51,0,0,1,4.18-.53,18.87,18.87,0,0,1,3.52.3,9.5,9.5,0,0,1,2.8.92,5,5,0,0,1,1.84,1.59,4,4,0,0,1,.66,2.36,4.91,4.91,0,0,1-.59,2.43,7.26,7.26,0,0,1-1.52,1.88,17.18,17.18,0,0,1-2,1.51c-.73.46-1.43.9-2.11,1.31a.47.47,0,0,0-.1.36v.1C117.06,97.38,123.72,101,126.79,101.19Z" transform="translate(-9.72)"/><circle class="cls-3" cx="57.21" cy="81.29" r="2.03"/><text class="cls-8" transform="translate(62.24 137.69) rotate(-30)">ww<tspan class="cls-9" x="5.78" y="0">w</tspan><tspan x="8.44" y="0">.thewileylab.o</tspan><tspan class="cls-10" x="33.26" y="0">r</tspan><tspan x="34.51" y="0">g</tspan></text></svg>